<?xml version="1.0" encoding="UTF-8" standalone="no"?>
<!-- Created with Inkscape (http://www.inkscape.org/) -->

<svg
   width="100"
   height="100"
   viewBox="0 0 26.458332 26.458334"
   version="1.1"
   id="svg1"
   xml:space="preserve"
   inkscape:version="1.4 (e7c3feb100, 2024-10-09)"
   sodipodi:docname="spendemon.svg"
   xmlns:inkscape="http://www.inkscape.org/namespaces/inkscape"
   xmlns:sodipodi="http://sodipodi.sourceforge.net/DTD/sodipodi-0.dtd"
   xmlns="http://www.w3.org/2000/svg"
   xmlns:svg="http://www.w3.org/2000/svg"><sodipodi:namedview
     id="namedview1"
     pagecolor="#ffffff"
     bordercolor="#000000"
     borderopacity="0.25"
     inkscape:showpageshadow="2"
     inkscape:pageopacity="0.0"
     inkscape:pagecheckerboard="0"
     inkscape:deskcolor="#d1d1d1"
     inkscape:document-units="mm"
     inkscape:zoom="4.1335579"
     inkscape:cx="-13.668612"
     inkscape:cy="18.386098"
     inkscape:window-width="2560"
     inkscape:window-height="1371"
     inkscape:window-x="0"
     inkscape:window-y="0"
     inkscape:window-maximized="1"
     inkscape:current-layer="layer1" /><defs
     id="defs1" /><g
     inkscape:label="Layer 1"
     inkscape:groupmode="layer"
     id="layer1"
     transform="matrix(0.14605383,0,0,0.14605383,11.872545,11.169994)"><g
       style="fill:#000000"
       id="g1"
       transform="matrix(0.82105519,0,0,0.82105859,-95.363339,-90.779334)"><path
         d="m 232.47656,215.51563 -40.67773,-40.67774 a 96.10791,96.10791 0 1 0 -16.97168,16.96973 l 40.67871,40.67871 a 12.0001,12.0001 0 1 0 16.9707,-16.9707 z M 43.99707,116 a 72,72 0 1 1 72,72 72.08124,72.08124 0 0 1 -72,-72 z"
         id="path1" /></g><g
       style="fill:#000000"
       id="g2"
       transform="matrix(4.7458467,0,0,4.7458467,-31.356222,-52.49488)"><path
         d="m 12.496,15.87 c 10e-4,0.027 10e-4,0.06 10e-4,0.092 0,1.326 -0.507,2.534 -1.337,3.441 l 0.003,-0.004 c -0.881,0.967 -2.081,1.63 -3.432,1.824 L 7.7,21.227 v 2.344 0.016 C 7.7,23.815 7.515,24 7.287,24 7.281,24 7.276,24 7.27,24 H 7.271 5.464 C 5.228,23.997 5.038,23.807 5.035,23.571 V 21.227 C 4.395,21.139 3.819,20.994 3.269,20.793 l 0.059,0.019 C 2.43,20.507 1.65,20.086 0.958,19.558 l 0.02,0.015 C 0.745,19.404 0.543,19.239 0.349,19.064 L 0.356,19.07 Q 0.189,18.91 0.122,18.83 c -0.074,-0.074 -0.12,-0.176 -0.12,-0.289 0,-0.099 0.036,-0.19 0.095,-0.261 l -0.001,10e-4 1.379,-1.808 c 0.073,-0.093 0.183,-0.154 0.307,-0.16 h 10e-4 c 0.018,-0.003 0.038,-0.005 0.06,-0.005 0.105,0 0.199,0.049 0.26,0.126 l 10e-4,10e-4 0.026,0.026 c 0.885,0.81 1.987,1.398 3.208,1.666 l 0.046,0.009 c 0.298,0.068 0.64,0.107 0.991,0.107 0.018,0 0.04,0.001 0.062,0.001 0.691,0 1.331,-0.216 1.858,-0.584 L 8.284,17.667 C 8.785,17.325 9.11,16.757 9.11,16.113 9.11,16.085 9.109,16.057 9.108,16.03 v 0.004 c 0,-0.263 -0.075,-0.508 -0.204,-0.715 l 0.003,0.006 C 8.78,15.111 8.631,14.927 8.46,14.766 L 8.459,14.765 C 8.232,14.574 7.974,14.406 7.698,14.272 L 7.676,14.262 Q 7.14,13.988 6.796,13.833 6.452,13.678 5.725,13.398 5.203,13.184 4.901,13.063 4.599,12.942 4.077,12.708 3.555,12.474 3.24,12.293 2.925,12.112 2.483,11.818 C 2.213,11.643 1.977,11.455 1.762,11.248 l 10e-4,0.001 c -0.2,-0.203 -0.391,-0.416 -0.57,-0.64 L 1.18,10.593 C 0.995,10.369 0.835,10.113 0.713,9.837 L 0.705,9.816 C 0.598,9.566 0.501,9.269 0.43,8.962 L 0.423,8.926 C 0.351,8.619 0.309,8.266 0.309,7.904 c 0,-0.008 0,-0.016 0,-0.024 v 0.001 c 0,-0.009 0,-0.02 0,-0.031 0,-1.25 0.501,-2.384 1.314,-3.21 L 1.622,4.641 C 2.512,3.719 3.685,3.075 5.001,2.852 L 5.037,2.847 V 0.432 c 0,-0.001 0,-0.003 0,-0.004 C 5.037,0.311 5.086,0.205 5.164,0.13 5.239,0.052 5.345,0.003 5.462,0.003 h 0.003 1.808 0.016 c 0.228,0 0.413,0.185 0.413,0.413 V 0.433 0.432 2.789 c 0.55,0.058 1.052,0.167 1.533,0.323 L 9.182,3.097 c 0.459,0.14 0.845,0.293 1.216,0.471 L 10.346,3.546 c 0.328,0.163 0.607,0.33 0.871,0.516 l -0.02,-0.014 q 0.4,0.282 0.522,0.388 0.122,0.106 0.201,0.187 c 0.082,0.071 0.133,0.176 0.133,0.292 0,0.081 -0.025,0.156 -0.067,0.218 L 11.987,5.132 10.905,7.088 C 10.85,7.209 10.734,7.293 10.598,7.302 h -0.001 c -0.025,0.005 -0.055,0.009 -0.085,0.009 -0.106,0 -0.203,-0.039 -0.277,-0.103 h 0.001 Q 10.196,7.168 10.042,7.048 9.888,6.928 9.52,6.693 C 9.301,6.551 9.045,6.409 8.779,6.282 L 8.737,6.264 C 8.457,6.133 8.125,6.014 7.781,5.925 L 7.739,5.916 C 7.396,5.82 7.002,5.763 6.595,5.762 H 6.594 C 6.548,5.76 6.495,5.759 6.441,5.759 5.725,5.759 5.059,5.975 4.506,6.346 L 4.519,6.338 C 4.032,6.665 3.715,7.214 3.715,7.837 3.715,8.063 3.757,8.28 3.833,8.48 L 3.829,8.468 c 0.092,0.22 0.226,0.406 0.394,0.555 L 4.225,9.024 C 4.386,9.175 4.558,9.32 4.738,9.455 l 0.016,0.011 c 0.215,0.148 0.462,0.287 0.721,0.403 l 0.03,0.012 q 0.502,0.234 0.81,0.362 0.308,0.128 0.938,0.368 0.71,0.268 1.085,0.422 0.375,0.154 1.018,0.469 c 0.394,0.187 0.725,0.376 1.041,0.587 l -0.029,-0.018 c 0.31,0.22 0.58,0.44 0.837,0.675 L 11.199,12.74 c 0.277,0.242 0.513,0.522 0.701,0.835 l 0.009,0.016 c 0.166,0.293 0.309,0.634 0.413,0.991 l 0.009,0.034 c 0.109,0.365 0.171,0.785 0.171,1.219 v 0.042 -0.002 z"
         id="path1-5" /></g></g></svg>
